<?xml version="1.0" encoding="utf-8"?>
<svg width="22px" height="21px" viewBox="0 0 22 21" xmlns="http://www.w3.org/2000/svg">
<defs>
  <linearGradient id="my-linear-gradient" x2="0" y2="1">
    <stop offset="5%" style="stop-color:rgb(147,86,220);stop-opacity:1" />
    <stop offset="95%" style="stop-color:rgb(255,121,218);stop-opacity:1" />
  </linearGradient>
  <clipPath id="heart-clip">
    <path
      d="M 12.2208 2.4055 L 11.3741 3.3573 L 11.0005 3.7773 L 10.627 3.3573 L 9.7805 2.4058 C 7.7827 0.1526 4.5976 -0.1696 2.4766 1.802 C -0.0175 4.1245 -0.1549 8.3236 2.0848 10.8495 L 10.399 20.2148 C 10.7372 20.5955 11.2595 20.5955 11.5977 20.2149 L 19.9123 10.8492 C 22.1559 8.3233 22.0186 4.1246 19.5245 1.8021 C 17.4035 -0.1696 14.2186 0.1526 12.2208 2.4055 Z"
    />
  </clipPath>
</defs>
<symbol id="heart">
  <path
    d="M 12.2208 2.4055 L 11.3741 3.3573 L 11.0005 3.7773 L 10.627 3.3573 L 9.7805 2.4058 C 7.7827 0.1526 4.5976 -0.1696 2.4766 1.802 C -0.0175 4.1245 -0.1549 8.3236 2.0848 10.8495 L 10.399 20.2148 C 10.7372 20.5955 11.2595 20.5955 11.5977 20.2149 L 19.9123 10.8492 C 22.1559 8.3233 22.0186 4.1246 19.5245 1.8021 C 17.4035 -0.1696 14.2186 0.1526 12.2208 2.4055 Z"
  />
</symbol>
<symbol id="wave">
  <path
    d="M0,6c100,10,100,-10,200,0c100,10,100,-10,200,0v394h-400Z" fill="url(#my-linear-gradient)"
  />
</symbol>
</svg>
